<svg style="position: absolute; width: 0; height: 0; overflow: hidden;" version="1.1" xmlns="http://www.w3.org/2000/svg" xmlns:xlink="http://www.w3.org/1999/xlink">
  <defs>
    <symbol id="facebook" viewBox="36 0 36 36">
        <path id="face" d="M54 .5C44.4.5 36.5 8.3 36.5 18S44.4 35.5 54 35.5 71.5 27.6 71.5 18 63.6.5 54 .5zm4.4 11.7h-2c-.8 0-.9.3-.9 1.1v1.8h2.9l-.3 2.9h-2.6v10.2h-4.4V18h-2.9v-2.9h2.9v-3.4c0-2.6 1.4-3.9 4.4-3.9h2.9v4.4z"/>
    </symbol>
    <symbol id="twitter" viewBox="74 0 36 36">
        <path id="twitter" d="M92 .5C82.4.5 74.5 8.3 74.5 18S82.4 35.5 92 35.5s17.5-7.8 17.5-17.5S101.6.5 92 .5zm8.8 14.1c.3 5.9-4.1 12.4-11.9 12.4-2.4 0-4.6-.7-6.4-1.9 2.2.3 4.4-.4 6.2-1.7-1.8 0-3.4-1.2-3.9-2.9.7.1 1.3.1 1.9-.1-2-.4-3.4-2.2-3.4-4.2.6.3 1.2.5 1.9.5-1.9-1.2-2.4-3.7-1.3-5.6 2.1 2.5 5.1 4.2 8.6 4.4-.6-2.6 1.4-5.1 4.1-5.1 1.2 0 2.3.5 3.1 1.3 1-.2 1.8-.5 2.7-1-.3 1-1 1.8-1.8 2.3.8-.1 1.7-.3 2.4-.7-.6.9-1.4 1.7-2.2 2.3z"/>
    </symbol>
    <symbol id="instagram" viewBox="112 0 36 36">
        <path id="instagram" d="M137.6 11.1V13c0 .4-.4.8-.8.8H135c-.4 0-.8-.4-.8-.8v-1.8c0-.4.3-.8.8-.8h1.8c.5 0 .8.3.8.7zM130 21.9c2.2 0 3.9-1.8 3.9-3.9s-1.8-3.9-3.9-3.9c-2.2 0-3.9 1.8-3.9 3.9s1.7 3.9 3.9 3.9zm6.2-4.8c0 .3.1.6.1.9 0 3.5-2.8 6.3-6.3 6.3s-6.3-2.8-6.3-6.3c0-.3 0-.6.1-.9 0-.3.1-.6.2-.8h-1.6v8.6c0 .4.4.8.8.8h13.7c.4 0 .8-.4.8-.8v-8.6H136c.1.3.2.5.2.8zm11.3.9c0 9.6-7.8 17.5-17.5 17.5-9.6 0-17.5-7.8-17.5-17.5S120.4.5 130 .5s17.5 7.9 17.5 17.5zm-7.3-7.8c0-1.3-1.1-2.4-2.4-2.4h-15.7c-1.3 0-2.4 1.1-2.4 2.4v15.7c0 1.3 1.1 2.4 2.4 2.4h15.7c1.3 0 2.4-1.1 2.4-2.4V10.2z"/>
    </symbol>
    <symbol id="checkbox" viewBox="64 70 26 26">
        <path id="checkbox" d="M65 71v24h24V71H65zm11 17l-5-5.3 1.4-1.4L76 85l6.6-7 1.5 1.4L76 88z"/>
    </symbol>
    <symbol id="gear" viewBox="94 70 26 26">
        <path id="gear" d="M119 84.6v-3.2c-1.7-.6-2.7-.8-3.2-2-.5-1.3.1-2.1.8-3.7l-2.3-2.3c-1.6.7-2.4 1.4-3.7.8-1.3-.5-1.4-1.6-2-3.2h-3.2c-.6 1.6-.7 2.7-2 3.2s-2.1-.1-3.7-.8l-2.3 2.3c.7 1.6 1.4 2.4.8 3.7-.5 1.3-1.6 1.4-3.2 2v3.2c1.6.6 2.7.7 3.2 2s-.1 2.2-.8 3.7l2.3 2.3c1.6-.7 2.4-1.4 3.7-.8 1.3.5 1.4 1.6 2 3.2h3.2c.6-1.6.8-2.7 2-3.2 1.3-.5 2.1.1 3.7.9l2.3-2.3c-.7-1.6-1.4-2.4-.8-3.7.5-1.3 1.6-1.5 3.2-2.1zM107 87c-2.2 0-4-1.8-4-4s1.8-4 4-4 4 1.8 4 4-1.8 4-4 4z"/>
    </symbol>
    <symbol id="stat" viewBox="124 70 26 24">
        <path id="stat" d="M130 89h-4v-8h4v8zm6 0h-4V71h4v18zm6 0h-4V77h4v12zm6 0h-4v-4h4v4zm1 2h-24v2h24v-2z"/>
    </symbol>
    <symbol id="scroll" viewBox="131.3 38 20 26">
        <path id="XMLID_182_" d="M141.3 53l-9-14h18l-9 14zm9-4h-4l-5 8-5-8h-4l9 14 9-14z"/>
    </symbol>
    <symbol id="checkOff" viewBox="0 98 26 26">
        <path id="checkOff" d="M0 98h26v26H0z"/>
    </symbol>
  </defs>
</svg>




  

