<svg version="1.1" id="Layer_1" xmlns="http://www.w3.org/2000/svg" x="0" y="0" viewBox="0 0 141 55" xml:space="preserve">
  <path id="XMLID_88_" fill="#CC1F3E" d="M18.5 1C8.9 1 1 8.9 1 18.5S8.9 36 18.5 36 36 28.1 36 18.5 28.1 1 18.5 1zm4.4 11.7h-2c-.8 0-.9.3-.9 1.1v1.8h2.9l-.3 2.9H20v10.2h-4.4V18.5h-2.9v-2.9h2.9v-3.4c0-2.6 1.4-3.9 4.4-3.9h2.9v4.4z"/>
  <path id="XMLID_91_" fill="#CC1F3E" d="M56.5 1C46.9 1 39 8.9 39 18.5S46.9 36 56.5 36 74 28.1 74 18.5 66.1 1 56.5 1zm8.8 14.1c.3 5.9-4.1 12.4-11.9 12.4-2.4 0-4.6-.7-6.4-1.9 2.2.3 4.4-.4 6.2-1.7-1.8 0-3.4-1.2-3.9-2.9.7.1 1.3.1 1.9-.1-2-.4-3.4-2.2-3.4-4.2.6.3 1.2.5 1.9.5-1.9-1.2-2.4-3.7-1.3-5.6 2.1 2.5 5.1 4.2 8.6 4.4-.6-2.6 1.4-5.1 4.1-5.1 1.2 0 2.3.5 3.1 1.3 1-.2 1.8-.5 2.7-1-.3 1-1 1.8-1.8 2.3.8-.1 1.7-.3 2.4-.7-.6.9-1.4 1.7-2.2 2.3z"/>
  <path id="XMLID_78_" fill="#CC1F3E" d="M102.1 11.6v1.8c0 .4-.4.8-.8.8h-1.8c-.4 0-.8-.4-.8-.8v-1.8c0-.4.3-.8.8-.8h1.8c.5.1.8.4.8.8zm-7.6 10.8c2.2 0 3.9-1.8 3.9-3.9s-1.8-3.9-3.9-3.9c-2.2 0-3.9 1.8-3.9 3.9s1.7 3.9 3.9 3.9zm6.2-4.8c0 .3.1.6.1.9 0 3.5-2.8 6.3-6.3 6.3s-6.3-2.8-6.3-6.3c0-.3 0-.6.1-.9 0-.3.1-.6.2-.8h-1.6v8.6c0 .4.4.8.8.8h13.7c.4 0 .8-.4.8-.8v-8.6h-1.6c0 .3.1.5.1.8zm11.3.9c0 9.6-7.8 17.5-17.5 17.5S77 28.1 77 18.5 84.9 1 94.5 1 112 8.9 112 18.5zm-7.3-7.8c0-1.3-1.1-2.4-2.4-2.4H86.7c-1.3 0-2.4 1.1-2.4 2.4v15.7c0 1.3 1.1 2.4 2.4 2.4h15.7c1.3 0 2.4-1.1 2.4-2.4V10.7z"/>
  <path id="XMLID_637_" fill="#CC1F3E" d="M115.5 1.5v24h24v-24h-24zm11 17-5-5.3 1.4-1.4 3.6 3.7 6.6-7 1.5 1.4-8.1 8.6z"/>
  <path id="XMLID_4_" fill="none" stroke="#CC1F3E" stroke-width=".5" stroke-miterlimit="10" d="M115.5 29.5v24h24v-24h-24z"/>
</svg>